<?xml version="1.0" encoding="utf-8"?>
<svg version="1.1" xmlns="http://www.w3.org/2000/svg" xmlns:xlink="http://www.w3.org/1999/xlink" 
     viewBox="0 0 100 100" style="enable-background:new 0 0 100 100;" xml:space="preserve">
<style type="text/css">
    .st0{fill:#BFBDBA;}
</style>

<defs>
    <mask id="logo-mask">
        <!-- 白色区域表示显示（不透明） -->
        <rect width="100" height="100" fill="white"/>
        
        <!-- 黑色区域表示隐藏（透明） -->
        <!-- 四条竖线，每条宽4单位（图片宽度的4%） -->
        <rect x="16.8" y="0" width="4" height="100" fill="black"/>
        <rect x="37.6" y="0" width="4" height="100" fill="black"/>
        <rect x="58.4" y="0" width="4" height="100" fill="black"/>
        <rect x="79.2" y="0" width="4" height="100" fill="black"/>
    </mask>
</defs>

<!-- 应用掩码的LOGO -->
<g mask="url(#logo-mask)">
    <!-- 调整LOGO位置使其居中 - 微调 -->
    <g transform="translate(2, 2)">
        <path class="st0" d="M48.36,3.5C25.13,3.5,6.09,21.42,4.28,44.19l23.71,9.8c2.01-1.37,4.44-2.18,7.05-2.18
            c0.23,0,0.47,0.01,0.70,0.02l10.54-15.28c0-0.07,0-0.14,0-0.22c0-9.20,7.48-16.68,16.68-16.68c9.20,0,16.68,7.48,16.68,16.68
            c0,9.20-7.48,16.68-16.68,16.68c-0.13,0-0.25,0-0.38-0.01L47.54,63.74c0.01,0.20,0.02,0.39,0.02,0.59
            c0,6.91-5.62,12.52-12.52,12.52c-6.06,0-11.13-4.33-12.28-10.05L5.80,59.79c5.25,18.57,22.31,32.18,42.56,32.18
            c24.43,0,44.24-19.81,44.24-44.24C92.60,23.31,72.79,3.50,48.36,3.50"/>
        <path class="st0" d="M32,70.62l-5.43-2.25c0.96,2,2.63,3.68,4.84,4.61c4.78,1.99,10.29-0.28,12.29-5.06
            c0.96-2.31,0.97-4.87,0.01-7.19c-0.96-2.32-2.76-4.13-5.07-5.10c-2.30-0.96-4.76-0.92-6.93-0.11l5.61,2.32
            c3.53,1.47,5.19,5.52,3.73,9.05C39.58,70.43,35.53,72.09,32,70.62"/>
        <path class="st0" d="M74.08,36.33c0-6.13-4.99-11.12-11.12-11.12c-6.13,0-11.12,4.99-11.12,11.12c0,6.13,4.99,11.11,11.12,11.11
            C69.09,47.45,74.08,42.46,74.08,36.33 M54.63,36.32c0-4.61,3.74-8.35,8.35-8.35c4.61,0,8.35,3.74,8.35,8.35
            c0,4.61-3.74,8.35-8.35,8.35C58.37,44.67,54.63,40.93,54.63,36.32"/>
    </g>
</g>
</svg>